<?xml version="1.0" encoding="utf-8"?>
<!-- Generator: Adobe Illustrator 16.0.2, SVG Export Plug-In . SVG Version: 6.00 Build 0)  -->
<!DOCTYPE svg PUBLIC "-//W3C//DTD SVG 1.1//EN" "http://www.w3.org/Graphics/SVG/1.1/DTD/svg11.dtd">
<svg version="1.1" id="Слой_1" xmlns="http://www.w3.org/2000/svg" xmlns:xlink="http://www.w3.org/1999/xlink" x="0px" y="0px"
	 width="230px" height="113px" viewBox="0.5 -453 230 113" enable-background="new 0.5 -453 230 113" xml:space="preserve">
<g enable-background="new    ">
	<path d="M21.144-409.733c-0.56,0.24-0.32,0.96-0.72,1.28c-0.32,0.16-0.64,0.561-0.72,1.04c-0.24,0.72-0.56,1.2-0.88,1.84
		l-0.88,1.841c-0.24,0.64-0.64,1.119-0.72,1.76c0,0.399-0.4,0.72-0.56,1.04c-0.08,0.399-0.56,0.399-0.56,0.8
		c0,0.16-0.16,0.48-0.24,0.8c-0.32,0.721-0.32,1.44-0.8,2.16c-0.4,0.561-0.56,1.36-0.8,2c0,0.08-0.16,0.16-0.16,0.16
		c-0.4,0.08-0.4,0.4-0.4,0.72v0.721c0,0.08,0.08,0.239,0.08,0.319c0.16-0.08,0.24-0.08,0.32-0.239l0.32-0.24
		c0.4-0.48,0.56-0.48,0.96,0c0.32,0.399,0.8,0.56,1.28,0.88c0.32,0.08,0.64,0.32,1.04,0.56c0.16,0,0.32,0,0.4-0.159
		c0.32-0.16,0.56-0.48,0.72-0.881c0.64-1.359,1.44-2.56,2.32-3.92c0.48-0.8,0.88-1.68,1.44-2.479c0.56-1.12,1.2-2.4,1.92-3.521
		c0.96-1.6,1.76-3.36,2.88-5.04c0.4-0.56,0.4-1.28,1.04-1.84c0.72-1.36,1.36-2.8,2.16-4c1.04-1.761,1.84-3.681,2.88-5.44
		c0.72-1.28,1.36-2.56,1.92-3.84c0.32-0.48,0.96-0.88,0.72-1.601l0.16-0.239c0.56-0.48,0.72-1.12,1.04-1.761
		c0-0.08,0.08-0.16,0.08-0.319c0.64-0.881,0.8-1.12,1.84-0.881c0.4,0,0.72,0.08,1.12,0.16l1.36,0.88c0.08,0.08,0.08,0.48-0.08,0.721
		c-0.64,0.399-0.96,1.12-1.2,1.76c-0.16,0.56-0.56,0.96-0.8,1.521c-0.16,0.479-0.48,1.119-0.8,1.52c-0.8,1.521-1.68,2.96-2.72,4.4
		c-0.16,0.24-0.24,0.56-0.48,0.88c-0.24,0.479-0.48,1.04-0.8,1.52c-0.24,0.4-0.56,0.96-0.88,1.36c-0.4,0.48-0.56,1.12-0.96,1.76
		c-0.16,0,0,0.16-0.16,0.4c0,0.08,0,0.32-0.08,0.4c-0.4,0.159-0.48,0.64-0.72,1.04l-0.64,0.88c-0.4,0.56-0.72,1.279-1.2,1.68
		c-0.32,0.16,0.08,0.48-0.24,0.64c-0.32,0-0.32,0.24-0.4,0.48c-0.08,0.08-0.08,0.24-0.08,0.32c0.16,0.64,0.08,0.64-0.4,0.479
		c-0.24-0.08-0.32,0-0.24,0.32c0,0,0.08,0.08,0.08,0.24c0.16,0.159,0.16,0.399-0.08,0.479c-0.64,0.32-0.8,0.96-1.36,1.44
		c-0.16,0.24-0.16,0.399-0.08,0.64c0.08,0.08,0,0.16,0,0.16c-0.4,0.16-0.32,0.32-0.16,0.56c-0.48,0.08-0.48,0.48-0.72,0.721
		c-0.48,0.319-0.64,0.72-0.72,1.2c-0.56,0.159-0.64,0.64-0.72,1.04c-0.24,0.319-0.24,0.64-0.56,0.8c-0.32,0.24-0.08,0.64-0.4,0.96
		c-0.24,0.08-0.48,0.32-0.64,0.64c-0.08,0.08,0,0.32,0.24,0.4c0,0.16,0,0.399-0.08,0.479c-0.56,0.32-0.88,0.88-1.28,1.36
		c-0.4,0.4-0.32,1.04-0.8,1.44c-0.56,0.399-0.64,1.04-0.96,1.439c-0.16,0.32-0.08,0.48,0.24,0.641c1.44,0.8,2.8,1.84,4.4,2.319
		c0.96,0.32,1.76,0.721,2.48,1.28c0.32,0.08,0.4,0,0.64-0.16c0.16-0.08,0.4,0,0.4,0.32c0.4-0.08,0.8,0.16,1.04,0.32
		c0.48,0.399,0.88,0.64,1.44,0.72s1.04,0.64,1.6,0.72c0.4,0.08,0.96,0.4,1.44,0.641l2.48,1.199c0.56,0.32,1.04,0.641,1.52,0.721
		c0.56,0.16,0.88,0.399,1.28,0.56c0.32,0.16,0.72,0.16,1.04,0.48l0.32,0.239c0.24,0,0.48,0,0.72,0.08c1.52,0.641,2.96,1.2,4.4,1.921
		c0.08,0,0.4-0.08,0.32,0.319c-0.16,0.16-0.16,0.32,0.08,0.32c0.48,0,0.96,0.56,1.44,0c0.08,0,0.24,0.08,0.32,0.24
		c0.08,0.159,0.08,0.319,0.4,0.159c0.72-0.319,1.36,0.16,1.84,0.561v0.32c-0.16,0.159,0.08,0.159,0.24,0.159
		c0.16-0.079,0.32-0.319,0.56,0c0.56,0.4,1.2,0.641,1.92,0.641c0.72,0,1.28,0.32,1.92,0.64c0.32,0.08,0.64,0.24,0.96,0.16
		c0.4,0,0.8,0,1.12,0.32c1.04,0,2,0.24,2.96,0.64c0.4,0.08,0.72-0.24,1.12-0.16l0.96,0.48h1.12c0.32,0,0.72,0,1.04,0.08
		c0.4,0.16,0.56-0.24,0.88-0.08c0.16,0.08,0.32,0.08,0.32,0.08c0,0.16-0.08,0.399-0.08,0.399c-0.4,0.24-0.8,0.4-1.28,0.48
		c-0.88,0.24-1.68,0.56-2.64,0.479c-1.04,0-2.08,0.08-3.12,0c-0.8-0.159-1.6-0.239-2.4-0.319c-0.88-0.24-1.68-0.4-2.64-0.561
		c-0.48-0.08-1.12-0.319-1.6-0.479c-0.96-0.24-1.84-0.561-2.8-0.721c-0.8-0.239-1.52-0.399-2.24-0.72
		c-1.84-0.72-3.84-1.36-5.68-2.08c-0.32-0.16-0.72-0.16-1.04-0.399c-1.6-0.721-3.28-1.44-5.04-2.08c-0.48-0.16-1.04-0.48-1.52-0.801
		c-1.76-0.72-3.6-1.52-5.28-2.479c-1.6-0.88-3.44-1.521-5.12-2.48c-1.2-0.8-2.56-1.439-3.92-2.16c-0.16-0.08-0.4,0-0.4,0.24
		l-0.32,0.32l-0.56,1.2c0.08,0,0.16,0,0.16,0.08c-0.16,0.159-0.08,0-0.16-0.08c-0.56,0.239-0.64,0.72-0.88,1.279
		c-0.08,0.16-0.16,0.4-0.32,0.561c-0.4,0.56-0.72,0.96-0.96,1.439c-0.56,0.721-0.96,1.44-1.36,2.32c-0.24,0.24-0.32,0.72-0.72,0.96
		c-0.32,0.16-0.32,0.641-0.4,0.88c-0.64,0.88-1.12,1.761-1.76,2.561c-0.32,0.399-0.4,0.8-0.72,1.2c-0.24,0.319-0.32,0.72-0.72,0.96
		c-0.24,0.08-0.4,0.479-0.4,0.72c0,0.64-0.56,0.88-0.72,1.44c-0.64,0.399-0.96,1.12-1.36,1.84c-0.32,0.479-0.72,1.04-1.36,1.2
		c-0.16,0.16-0.32,0.239-0.48,0.16c-0.4-0.4-1.12-0.641-1.36-1.12c-0.16-0.641-0.4-1.2-0.4-1.761c0.08-0.399-0.4-0.88-0.24-1.359
		c0.16-0.4,0.48-0.801,0.56-1.2c0.32-1.04,0.64-2,0.88-3.04c0.32-0.88,0.56-1.76,0.96-2.561c0.08-0.319,0.24-0.479,0.48-0.64
		c0,0.24,0.16,0.479,0.16,0.72l0.08,0.16v-0.16c0.08-0.24,0.08-0.479,0.08-0.72h-0.32v-0.24l0.24-0.24c0,0.08,0.08,0.08,0.08,0.24
		v0.24c0.4-0.08,0.32-0.561,0.56-0.8c0-0.721,0.48-1.36,0.72-2.08c0.08-0.561,0.4-1.2,0.56-1.84c0.32-0.561,0.64-1.28,0.56-2.001
		c-0.08-0.159-0.08-0.159-0.24-0.159c0.24-0.16,0.24,0,0.24,0.159c0.4-0.159,0.4-0.479,0.4-0.72l1.2-3.2
		c0.16-0.239,0.16-0.319-0.08-0.56c-0.4-0.32-0.72-0.72-0.88-1.2c-0.32-0.4-0.24-0.96,0.08-1.36c0.16-0.319,0.4-0.479,0.8-0.399
		c0.32,0.08,0.64,0,0.8,0.239l0.56,0.24c0-0.16,0-0.24,0.08-0.399c0.4-1.04,0.72-2,1.28-2.96c0.4-0.721,0.56-1.521,0.88-2.4
		c0.32-0.8,0.96-1.521,1.04-2.32c0.64-0.8,1.04-1.84,1.52-2.72c0.64-1.2,1.04-2.561,1.68-3.681l1.52-2.64
		c0.32-0.4,0.4-1.04,0.8-1.44c0.48-0.399,0.64-1.04,0.96-1.6c0.32-0.4,0.64-0.88,0.96-1.44c0-0.08,0-0.159,0.08-0.239
		c1.36-1.761,2.32-3.601,3.76-5.36l1.28-1.601l0.64-0.8c0.08-0.32,0.4-0.399,0.72-0.32v0.32c0.16-0.08,0.16-0.08,0.24-0.32h-0.24
		v-0.399c0.56-0.72,1.2-1.44,1.84-2.16c0.4-0.48,1.04-0.88,1.28-1.44c0.48-0.64,1.04-0.8,1.28-1.439c0.8-0.4,1.2-1.04,1.84-1.601
		l1.76-1.6c0.16-0.08,0.4-0.32,0.64-0.4c0.72-0.88,1.68-1.439,2.4-2.24c0.24-0.079,0.56-0.079,0.72-0.239
		c0.64-0.4,1.2-1.04,1.92-1.28c0.16-0.16,0.24-0.56,0.4-0.72c-0.4,0-0.64,0.16-0.96,0.479c-0.32,0.32-0.64,0.4-1.04,0.4
		c0.16-0.4,0.56-0.48,0.88-0.72c0.24-0.32,0.72-0.48,0.96-0.801c0.32-0.239,0.72-0.399,1.04-0.56c0.72-0.24,1.12-0.88,2-0.96
		c0.56-0.16,1.2-0.561,1.84-0.72c0.32-0.24,0.64-0.32,0.88-0.48c0.32-0.08,0.64-0.16,1.04-0.16c0.72-0.08,1.44,0.08,2.16-0.32
		c0.64,0.08,1.28,0.32,1.76,0.4c0.4,0.08,0.8,0.32,1.28,0.4c1.28,0.399,2.56,1.12,3.36,2.16c0.4,0.56,0.8,0.96,1.2,1.439
		c0.24,0.24,0.48,0.561,0.48,0.96c0,0.16,0.08,0.4,0.16,0.641c0.32,0.72,0.56,1.52,0.96,2.159c0,0.48,0.4,0.961,0.32,1.521
		c0,0.32,0.16,0.64,0.16,1.04c0,0.48,0,1.12,0.08,1.76c-0.4,0.48-0.24,1.12-0.24,1.601c0,0.64,0,1.279-0.48,1.68
		c-0.16,0.32,0.24,0.56,0,0.8l-0.4,0.8c0,0.16,0.24,0.4,0.16,0.4c-0.24,0.48-0.56,0.72-0.56,1.28c-0.72,0.32-0.8,1.04-1.12,1.6
		c-0.08,0.24-0.24,0.561-0.48,0.561c-0.16,0.319-0.16,0.64-0.56,0.64c-0.4,0-0.32,0.16-0.16,0.4c0.08,0.08,0.08,0.16,0,0.319
		l-0.56,1.28c-0.16,0.32-0.4,0.72-0.72,1.04c-0.4,0.32-0.72,0.96-0.88,1.44c-0.32,0.72-0.88,1.279-1.36,1.84
		c-0.64,0.88-1.36,1.68-2,2.48c-0.24,0.399-0.4,0.8-0.8,1.04c-0.16,0.399-0.4,0.64-0.8,0.72c-0.96,1.439-2.4,2.399-3.44,3.68
		c-0.48,0.561-1.12,0.96-1.84,1.12c-0.32,0.24-0.16-0.08-0.16-0.24c-0.16,0,0-0.16,0-0.16c0.08-0.079,0.16-0.159,0.16-0.319
		c-0.08,0-0.16,0.16-0.32,0.319c-0.16,0.16-0.48,0.24-0.8,0.32v-0.64c-0.32,0.16-0.48,0.319-0.64,0.64h0.64v0.32
		c0.24,0,0.4-0.08,0.56,0.08c0.16,0.56,0,0.88-0.48,0.72h-0.4c0.16-0.32,0.4-0.479,0.32-0.8l-0.64,0.32
		c0,0.319-0.24,0.159-0.48,0.319c-0.08,0.08-0.08,0.32-0.08,0.48c-0.24,0-0.4,0-0.56,0.319c0.24,0,0.56,0.08,0.64-0.319
		c0.24-0.08,0.48-0.4,0.8-0.32c0,0.4-0.16,0.72-0.48,0.96c-0.24,0-0.56,0.08-0.72,0.08c-0.32,0.08-0.24-0.08-0.24-0.32v-0.08
		l-0.4,0.32c-0.08,0.08-0.08,0.16-0.08,0.16c0.08,0.24,0.16,0.32,0.08,0.56c-0.16,0.32-0.4,0.48-0.8,0.4v-0.479h-0.32
		c-0.08,0.399-0.4,0.56-0.8,0.479v-0.24c-0.24,0-0.32,0.16-0.32,0.24h0.32v0.32c0.4,0.08,0.8-0.08,1.12-0.32c0,0.32,0,0.64-0.4,0.64
		c-0.24,0.08-0.56,0.16-0.72,0.32v-0.64h-0.32v-0.32h-0.64v0.32h0.64c0,0.08,0,0.16-0.08,0.16c-0.16,0.239-0.24,0.319,0.08,0.479
		h0.32c-0.16,0.08-0.16,0.16-0.24,0.16c-0.72,0-1.52,0.32-2.16,0.72c-0.08,0-0.16,0-0.32-0.08v-0.239c-0.16,0-0.32,0.159-0.32,0.239
		c0.16,0,0.24,0,0.32,0.08v0.24c0.16,0,0.24,0,0.32,0.08c0,0,0.08,0,0.24,0.08l-0.16,0.16c-0.08,0-0.16,0-0.24-0.16
		c0,0,0-0.08-0.16-0.16h-0.32v-0.24h-0.48v0.24h0.48c0,0.16,0.16,0.48-0.16,0.48c-0.4,0.079-0.72,0.399-1.12,0.64
		c-0.4,0.32-1.04,0.4-1.44,0.8c-0.56,0.4-1.12,0.4-1.6,0.72c-0.48,0.32-0.96,0.4-1.52,0.32v-0.32c-0.16,0-1.6,0.561-1.68,0.561
		c-0.24,0,0.88-0.64,0.8-0.88c-0.56,0.16-3.76,1.2-4.4,0.96c-0.08,0,2.48-0.72,2.4-0.72c0.08,0,0.08-0.08,0.24-0.08
		c0.56-0.16,1.12-0.561,1.76-0.721c1.12-0.479,2.32-0.96,3.44-1.6c1.04-0.48,2.08-1.2,3.12-1.84c1.76-1.04,3.28-2.24,4.8-3.521
		c1.44-0.96,2.8-2.24,4-3.6c0.48-0.4,0.72-0.801,1.28-0.96c0.08,0,0.32-0.24,0.32-0.32c0.32-0.64,0.88-1.04,1.28-1.601
		c1.04-0.96,1.92-2.239,3.04-3.279c0.48-0.881,1.28-1.761,1.92-2.641c0.8-1.12,1.52-2.399,2.08-3.6c0.48-1.28,1.12-2.24,1.52-3.521
		c0.08-0.08,0.08-0.32,0.24-0.399c0.72-1.12,0.8-2.48,1.2-3.681c0.24-0.64,0-1.36,0.32-2v-3.04l-0.32-1.6
		c-0.16-0.4-0.16-0.801-0.32-1.12c0-0.32-0.08-0.48-0.16-0.721c-0.32-0.56-0.64-1.199-1.04-1.76c-0.4-0.56-1.04-0.96-1.76-0.96
		c-0.4-0.16-0.72-0.16-1.04-0.24c-0.32-0.08-0.64,0.32-1.04,0c-0.16-0.239-0.4,0.24-0.72,0.24c-0.4-0.16-0.72-0.16-1.04,0
		c-0.24,0-0.56,0.16-0.8,0.16c-0.64,0.24-1.12,0.56-1.6,0.64c-0.56,0-0.88,0.16-1.2,0.4c-0.4,0.24-0.56,0.479-1.12,0.64
		c-0.4,0-0.56,0.561-1.12,0.48c-0.72,0.56-1.44,1.04-2.16,1.439c-0.8,0.641-1.521,1.28-2.48,1.681c-0.72,0.399-1.2,1.04-1.84,1.52
		c-1.04,0.801-2.08,1.761-3.04,2.641c-1.04,0.96-2,2-2.88,3.04c-0.48,0.319-0.88,0.8-1.2,1.2c-0.48,0.72-1.12,1.279-1.68,1.84
		c-0.56,0.64-1.04,1.28-1.6,1.84c-0.48,0.64-1.04,1.2-1.52,1.76c-0.08,0.32-0.32,0.561-0.4,0.721c-0.32,0.56-0.56,0.96-0.96,1.359
		c-0.48,0.48-0.88,1.12-1.12,1.84c-0.32,0.561-0.72,1.04-1.12,1.521c-0.08,0.24-0.64,0.24-0.64,0.56c0,0.32-0.08,0.48-0.32,0.801
		l-0.16,0.72c-0.08,0.4-0.32,0.72-0.8,0.96c-0.24,0-0.32,0.16-0.48,0.4c-0.16,0.159,0.48,0.399-0.08,0.64
		C21.464-410.133,21.224-410.053,21.144-409.733l0.16,0.24C21.144-409.413,21.144-409.573,21.144-409.733z M5.864-377.092
		c0.16-0.08,0.16-0.08,0.16-0.24c0-0.08-0.16-0.08-0.16-0.08c-0.08,0-0.08,0.08-0.08,0.24L5.864-377.092z M6.024-371.012
		c-0.16,0-0.24,0-0.16,0.159C6.024-370.932,6.024-370.932,6.024-371.012z M6.104-378.053l0.08,0.16l0.16-0.16v-0.399
		C6.104-378.452,6.104-378.212,6.104-378.053z M6.344-371.332c-0.16,0-0.24,0.08-0.24,0.16
		C6.184-371.172,6.344-371.252,6.344-371.332z M17.224-387.253c-0.08,0.08-0.32,0.16-0.56,0.24c0-0.16,0-0.399,0.16-0.56l0.56-1.28
		c0-0.08,0-0.16-0.08-0.16h-0.08c-0.08,0.08-0.32,0.08-0.32,0.32c-0.8,1.12-1.36,2.4-2.24,3.44c0,0,0,0.159-0.16,0.159
		c-0.88,1.841-2,3.601-3.12,5.2c-1.2,1.761-2,3.601-3.2,5.28c-0.56,0.561-0.88,1.28-1.36,2c-0.24,0.48-0.48,0.72-0.4,1.2
		c0.32-0.16,0.64-0.48,0.8-0.88l0.96-1.521c0.08-0.239,0.4-0.239,0.48-0.239c0.08-0.561,0.32-1.12,0.96-1.44v0.24
		c0,0.08,0.08,0.24,0.08,0.319c0.08-0.079,0.08-0.239,0.24-0.319v-0.24h-0.32v-0.4c0.16-0.479,0.48-0.88,0.72-1.439
		c0.32-0.561,0.72-1.12,1.28-1.44l0.24,0.24c0-0.08,0-0.08,0.08-0.24h-0.32c0.16-0.56,0.32-1.12,0.88-1.439
		c0.08-0.561,0.32-1.2,0.88-1.521c0-0.4,0.24-0.72,0.64-0.8v0.479c0.32,0,0.32-0.319,0.32-0.479h-0.32
		c0.24-0.96,0.32-1.04,1.12-2.08c0.08-0.72,0.4-1.12,0.96-1.521c0,0.32,0,0.48-0.24,0.721c0,0,0.08,0.08,0.08,0.16h0.24
		c0.08-0.16,0.08-0.4,0.32-0.4c0.4-0.16,0.32-0.48,0.16-0.72c-0.16,0.08-0.4,0.239-0.56,0.239c0-0.399,0.16-0.72,0.56-0.88v0.561
		C17.144-386.532,17.304-386.853,17.224-387.253z M6.424-378.452c0.32-0.16,0.16-0.4,0.16-0.72c0,0-0.08,0-0.08-0.08
		c0,0.08-0.08,0.08-0.08,0.08V-378.452z M6.744-374.212c0.16,0.16,0.16-0.08,0.16-0.08c0.32-0.48,0.64-0.72,0.88-1.2
		c0.4-0.72,0.88-1.44,1.44-2.16l0.8-1.28c0.48-1.279,1.44-2.319,2.08-3.52c0.16-0.4,0.56-0.641,0.72-0.96
		c0.16-0.721,0.72-1.28,1.12-1.84c0.16-0.32,0.4-0.561,0.48-0.881c0.24-0.72,0.72-1.279,1.04-1.84c0.32-0.479,0.64-0.88,0.8-1.28
		c0.24-0.159,0.16-0.479-0.16-0.72c-0.96-0.32-1.76-0.72-2.72-1.12c-0.16-0.08-0.4-0.08-0.72-0.24c-0.08,0.24-0.16,0.561-0.32,0.721
		c-0.16,0.88-0.4,1.6-0.72,2.399c-0.08,0.32-0.16,0.721-0.56,0.96c0,0.16-0.24,0.16-0.32,0.24c-0.32,0.24-0.32,0.32,0,0.641
		c0,0.56-0.4,2.08-0.64,2.479c0,0.08-0.08,0.08-0.16,0.08c0-0.16-0.16-0.4-0.16-0.56c0-0.16,0-0.16-0.08-0.16v0.16
		c-0.08,0.159-0.24,0.479,0.24,0.56c0,0.561,0,0.96-0.24,1.36c-0.32,0.479-0.48,1.04-0.64,1.52c-0.16,0.721-0.48,1.44-0.72,2.08
		c-0.32,0.8-0.56,1.521-0.8,2.4c-0.08,0.16,0.08,0.479-0.32,0.72c-0.4,0.08,0.08,0.48-0.16,0.561c-0.24,0.16-0.32,0.319-0.32,0.56
		C6.583-374.532,6.583-374.292,6.744-374.212z M6.904-371.012c-0.08,0-0.16,0-0.08,0.159C6.824-370.932,6.904-371.012,6.904-371.012
		z M6.984-371.172c0.08,0,0.16-0.08,0.08-0.16C7.064-371.252,7.064-371.252,6.984-371.172z M7.064-381.492c0-0.16,0-0.16,0.08-0.16
		v0.24L7.064-381.492z M8.184-385.332c0.08-0.24,0.08-0.24,0.16,0H8.184z M8.344-373.012l-0.08-0.08v0.08H8.344z M8.744-386.853
		c0,0,0.16,0,0.16-0.16v0.24C8.744-386.772,8.744-386.853,8.744-386.853z M8.984-373.893c-0.08,0-0.24,0-0.24-0.159
		C8.744-373.893,8.744-373.732,8.984-373.893z M9.384-388.853v-0.08l0.08-0.08v0.08C9.464-388.853,9.464-388.853,9.384-388.853z
		 M9.384-383.252h0.08v-0.16L9.384-383.252z M10.104-375.652c-0.08,0-0.08-0.08-0.08,0l-0.08,0.08
		C10.024-375.572,10.024-375.652,10.104-375.652z M10.024-390.452l0.08,0.08h-0.08V-390.452z M10.424-376.372
		c-0.08,0-0.24,0-0.08,0.16C10.424-376.212,10.424-376.292,10.424-376.372z M10.744-377.013c-0.32,0.08-0.24,0.4-0.24,0.641
		C10.824-376.452,10.744-376.692,10.744-377.013z M10.504-387.973c0,0,0.16,0,0.16,0.08c0-0.08,0.08-0.08,0.08-0.08
		C10.664-388.133,10.664-388.133,10.504-387.973z M10.744-386.372c0-0.08,0.08-0.08,0.08-0.08S10.824-386.372,10.744-386.372z
		 M10.824-387.412h0.08l-0.08-0.08V-387.412z M10.904-386.452h-0.08v-0.08C10.904-386.532,10.904-386.532,10.904-386.452z
		 M11.064-377.172c-0.24,0-0.24,0.08-0.24,0.159C10.904-377.013,11.064-377.092,11.064-377.172z M11.384-377.813
		c-0.32,0.08-0.32,0.32-0.32,0.48C11.384-377.412,11.384-377.652,11.384-377.813z M11.144-388.933h0.08v-0.08L11.144-388.933z
		 M11.464-378.132c0,0.079,0,0.239-0.08,0.319C11.544-377.893,11.624-377.893,11.464-378.132z M11.944-391.173
		c0,0.08,0.16,0.16,0.16,0.32c0-0.16,0.08-0.16,0.08-0.24s0-0.08-0.08-0.24L11.944-391.173z M12.184-378.933
		c-0.08,0-0.08,0.08-0.08,0.08h0.08V-378.933z M12.504-379.572c-0.16,0-0.24,0-0.16,0.24
		C12.504-379.492,12.504-379.572,12.504-379.572z M12.504-396.053l-0.16,0.16v-0.16H12.504z M12.824-380.212h-0.24v0.56
		C12.904-379.652,12.824-379.973,12.824-380.212z M13.064-380.532c-0.08,0-0.16,0.16-0.16,0.32
		C12.984-380.292,13.064-380.372,13.064-380.532z M13.384-381.093c-0.32,0.08-0.16,0.32-0.32,0.561
		C13.384-380.612,13.384-380.772,13.384-381.093z M13.704-381.652h-0.32v0.56C13.704-381.252,13.704-381.412,13.704-381.652z
		 M14.024-381.973c-0.24,0-0.32,0.16-0.32,0.24C13.944-381.732,14.024-381.813,14.024-381.973z M14.664-382.853
		c-0.24,0-0.32,0.08-0.32,0.32C14.504-382.532,14.504-382.692,14.664-382.853z M14.744-383.412l-0.08,0.16v0.399
		c0.08-0.08,0.16-0.24,0.16-0.32C14.824-383.173,14.744-383.252,14.744-383.412z M15.704-384.853h-0.16
		c-0.08,0.16-0.16,0.16-0.32,0.24c0,0.08-0.08,0.24,0,0.24c0,0.239,0.16,0.239,0.24,0.159c0.08-0.079,0.24-0.159,0.32-0.399
		C15.784-384.612,15.704-384.692,15.704-384.853z M16.184-402.213l0.08,0.08v-0.08H16.184z M17.144-404.293l0.08,0.16l-0.08-0.24
		V-404.293z M17.544-387.893c-0.32,0.08-0.24,0.4-0.24,0.64C17.624-387.412,17.544-387.572,17.544-387.893z M17.624-405.093h0.24
		c0-0.08-0.16-0.08-0.16-0.08S17.624-405.173,17.624-405.093z M17.704-388.133c-0.08,0.16-0.08,0.16-0.08,0.24
		C17.704-387.893,17.864-387.893,17.704-388.133z M18.024-388.612h-0.08l0.08,0.08V-388.612z M20.744-394.213v-0.08
		c-0.16,0-0.24-0.08-0.32,0c-0.24,0.08-0.32,0.24-0.4,0.32c-0.48,0.64-0.88,1.36-1.28,1.92v0.32c0,0.16,0,0.16,0.08,0.16h0.24
		C19.784-392.293,20.104-393.333,20.744-394.213z M18.744-387.813c0.08,0,0.08,0,0.24,0.08
		C18.744-387.572,18.744-387.732,18.744-387.813z M19.464-409.013v0.16l0.08-0.16H19.464z M19.864-391.492
		c0-0.08-0.08-0.08-0.08-0.08h-0.08c0,0.08,0.08,0.08,0.08,0.08H19.864z M20.424-413.013l-0.16-0.08h0.16V-413.013z M20.584-394.772
		h0.16c0.24-0.16,0.72-0.32,0.88-0.72c0.64-1.04,1.04-2.16,1.68-3.12c0.72-1.04,1.12-2.16,1.92-3.04v-0.24
		c0.8-1.36,1.52-2.801,2.4-4.24c0.4-0.8,0.8-1.601,1.28-2.32c0.32-0.56,0.48-0.96,0.48-1.439c-0.48,0.08-0.48,0.56-0.64,0.88
		l-0.64,0.96c-0.64,1.12-1.2,2.24-1.84,3.52c-0.24,0.16-0.32,0.4-0.4,0.561c-0.56,0.72-1.12,1.359-1.44,2.16
		c-0.32,0.88-0.96,1.68-1.28,2.479c-0.72,1.44-1.52,2.88-2.56,4.24v0.08C20.504-394.933,20.504-394.933,20.584-394.772z
		 M20.744-393.173c0,0-0.24,0,0,0.24V-393.173z M20.904-393.492c0,0.159-0.08,0.239-0.08,0.239
		C20.904-393.253,21.144-393.253,20.904-393.492z M20.904-411.573h0.08l-0.08-0.08V-411.573z M20.984-410.773h-0.08v0.16
		L20.984-410.773z M21.304-393.893l-0.08-0.08v0.08H21.304z M21.864-413.013l0.08-0.08h-0.24L21.864-413.013z M22.184-395.413
		c0.08,0,0,0,0-0.079c0,0.079-0.16,0.079-0.16,0.079s0,0.08,0.16,0.08V-395.413z M22.504-396.053h-0.16v0.16
		C22.424-395.973,22.424-396.053,22.504-396.053z M22.744-396.612c-0.08,0.08-0.08,0.159-0.16,0.159v0.32
		c0.08-0.08,0.16-0.08,0.16-0.08V-396.612z M23.384-417.813l-0.08,0.08v-0.08H23.384z M25.064-394.692c-0.16,0-0.24,0-0.32-0.08
		c-1.92,0-0.96-0.24-0.96-0.24c0.4,0,1.76-0.16,2.08-0.16l1.44-0.24c0,0.08,0.56,0.24,0.56,0.32
		C27.544-394.772,25.304-394.692,25.064-394.692z M23.704-398.213c-0.08,0-0.24,0-0.08,0.24
		C23.704-398.053,23.704-398.053,23.704-398.213z M23.864-398.373c-0.08,0-0.08,0.08-0.08,0.16
		C23.864-398.213,24.024-398.213,23.864-398.373z M23.784-395.813c0-0.08,0-0.24,0.08-0.24
		C24.024-395.813,23.864-395.893,23.784-395.813z M24.104-416.934l0.08,0.16v-0.239L24.104-416.934z M24.504-399.253l-0.16-0.08
		c-0.16,0.08-0.24,0.24-0.24,0.32c0,0,0,0.08,0.08,0.08c0,0,0.16,0,0.24-0.08C24.424-399.093,24.504-399.093,24.504-399.253z
		 M24.744-397.173c0,0,0-0.08-0.16-0.16c0.16,0,0.16-0.16,0.16-0.16c0.08-0.079,0.16,0.16,0.08,0.32H24.744z M24.904-400.213
		c-0.08,0-0.32,0-0.08,0.16C24.824-400.133,24.824-400.133,24.904-400.213z M24.904-400.213c0.16-0.08,0.24,0,0.16-0.24
		C25.064-400.453,24.984-400.373,24.904-400.213z M25.064-418.053h0.08v-0.08L25.064-418.053z M25.464-400.933c0,0,0-0.16-0.16-0.16
		v0.24L25.464-400.933z M25.624-418.854c0.16-0.08,0.16-0.239,0.16-0.239C25.624-419.093,25.544-419.093,25.624-418.854z
		 M25.784-401.573h-0.16v0.08L25.784-401.573z M25.864-419.173h0.16c0,0,0-0.08-0.08-0.08L25.864-419.173z M25.864-399.572
		c0,0,0.08,0.079,0.16,0.079C25.864-399.413,25.864-399.493,25.864-399.572z M26.024-402.293c-0.08,0-0.16,0-0.08,0.16
		C25.944-402.213,26.024-402.213,26.024-402.293z M26.264-421.813c-0.24-0.24,0-0.24,0.08-0.24
		C26.344-421.974,26.264-421.974,26.264-421.813z M26.184-419.093v0.159c0.08,0,0.08,0,0.08-0.159H26.184z M26.264-402.533
		c-0.08,0-0.08,0.16-0.08,0.24C26.264-402.373,26.344-402.293,26.264-402.533z M26.344-401.573c-0.08,0-0.08-0.079-0.08-0.079
		l-0.08,0.079c0,0,0.08,0,0.08,0.08C26.264-401.493,26.264-401.573,26.344-401.573z M26.344-422.054c0-0.319,0.16-0.479,0.32-0.72
		c0.08,0,0.08-0.08,0.24-0.08c0,0.08,0.08,0.16,0.08,0.16C26.904-422.373,26.664-422.133,26.344-422.054z M26.664-403.093
		c-0.08,0-0.32,0-0.08,0.08L26.664-403.093z M26.504-420.133h0.08v-0.08L26.504-420.133z M26.904-403.413l-0.24,0.16
		C26.744-403.253,26.984-403.253,26.904-403.413z M27.224-403.973l-0.16,0.16C27.224-403.813,27.224-403.973,27.224-403.973z
		 M27.224-420.934c0-0.08,0-0.159,0.08-0.159C27.224-421.093,26.984-421.093,27.224-420.934z M27.304-421.253
		c0.16,0,0.32-0.08,0.32-0.16C27.384-421.413,27.304-421.333,27.304-421.253z M27.464-404.693c-0.08,0-0.16,0-0.08,0.24
		C27.464-404.533,27.464-404.533,27.464-404.693z M27.624-421.573c0.08,0,0.32,0,0.08-0.16
		C27.704-421.653,27.624-421.573,27.624-421.573z M27.784-405.013c0-0.08,0-0.08-0.08-0.16c0,0.08-0.08,0.08-0.08,0.16v0.319h0.16
		C27.784-404.772,27.944-404.853,27.784-405.013z M27.944-404.613c0,0.16,0,0.24,0.16,0.08
		C28.024-404.533,27.944-404.533,27.944-404.613z M28.024-422.133h0.08l-0.08-0.16V-422.133z M28.104-405.732l-0.08-0.08v0.08
		H28.104z M29.784-395.492c0,0,0.08,0.079,0,0.079c0,0,0,0.08-0.16,0.08c0,0.16-0.08,0-0.16,0s-1.36,0.24-1.44,0.24
		c0.08-0.08,1.36-0.399,1.44-0.399H29.784z M28.184-424.533c0.16-0.16,0.16-0.16,0.24,0H28.184z M28.664-406.533v-0.08l-0.16,0.08
		H28.664z M28.664-395.013l-0.16-0.08h0.16V-395.013z M28.744-386.692c-0.08,0-0.32,0-0.08,0.24
		C28.664-386.532,28.744-386.532,28.744-386.692z M28.984-425.253c-0.08,0.079-0.08,0.159-0.08,0.239
		C28.744-425.174,28.824-425.253,28.984-425.253z M28.984-423.493c-0.16,0-0.24,0.08-0.08,0.24
		C28.904-423.333,28.904-423.413,28.984-423.493z M29.064-407.013c-0.16-0.16-0.16-0.24-0.16-0.24s-0.08,0-0.08,0.08
		C28.904-407.173,28.904-407.173,29.064-407.013z M29.064-425.333c0.08-0.08,0.08-0.08,0.08-0.24
		C29.384-425.333,29.144-425.333,29.064-425.333z M29.064-423.573c0.16,0,0.32-0.16,0.32-0.24
		C29.144-423.813,29.144-423.733,29.064-423.573z M29.224-406.933c0,0-0.08,0-0.16-0.08
		C29.064-406.933,29.064-406.693,29.224-406.933z M29.224-422.773v-0.08l-0.08,0.08H29.224z M29.384-410.053
		c0.56-0.16,0.8-0.8,0.8-1.44C29.625-411.173,29.464-410.533,29.384-410.053z M29.625-408.453c-0.08,0.08-0.16,0.16-0.16,0.32
		c-0.08,0,0,0.08,0.08,0.16v-0.08C29.625-408.293,29.625-408.373,29.625-408.453z M29.625-424.134c0.24,0,0.24-0.079,0.24-0.319
		C29.784-424.453,29.625-424.293,29.625-424.134z M29.784-408.693l-0.16,0.08C29.784-408.613,29.864-408.613,29.784-408.693z
		 M30.184-383.813l-0.24-0.16c-0.08,0-0.16,0.08-0.16,0.08s0,0.08,0.08,0.08H30.184z M30.104-426.293
		c-0.16-0.08-0.16-0.16-0.16-0.16c0-0.16,0.16-0.16,0.16-0.24c0.08,0.08,0.08,0.24,0.08,0.24
		C30.184-426.373,30.104-426.373,30.104-426.293z M29.944-424.453c0.16,0,0.24-0.08,0.24-0.24
		C30.104-424.693,29.944-424.613,29.944-424.453z M30.184-409.413c-0.08,0.08-0.24,0.08-0.08,0.24
		C30.184-409.173,30.184-409.333,30.184-409.413z M30.264-424.693c0.08,0,0.24-0.16,0.24-0.32
		C30.344-424.934,30.264-424.934,30.264-424.693z M30.264-411.493c0.32-0.08,0.24-0.24,0.24-0.56
		C30.264-411.973,30.264-411.653,30.264-411.493z M30.344-409.573c0,0.08-0.08,0.08-0.08,0.16
		C30.344-409.413,30.504-409.413,30.344-409.573z M30.824-383.492c-0.16-0.32-0.32-0.16-0.56-0.32
		C30.264-383.412,30.584-383.492,30.824-383.492z M30.584-425.014c0.08,0,0.24,0,0.08-0.239
		C30.584-425.174,30.584-425.174,30.584-425.014z M30.584-412.053c0.08,0,0.24-0.16,0.24-0.24
		C30.584-412.293,30.584-412.213,30.584-412.053z M30.664-427.094c-0.16-0.239,0-0.239,0.16-0.239
		C30.824-427.333,30.664-427.174,30.664-427.094z M30.824-427.413c0.08-0.08,0.08-0.16,0.24-0.16
		C31.064-427.493,30.984-427.413,30.824-427.413z M30.824-412.373c0.24,0,0.24-0.32,0.24-0.56
		C30.824-412.773,30.824-412.613,30.824-412.373z M30.824-396.772h0.88v0.319c0.24,0,0.56,0,0.56-0.319h-0.56v-0.16h-0.48
		C30.984-396.933,30.904-396.933,30.824-396.772z M31.064-383.412h-0.24C30.904-383.252,30.904-383.173,31.064-383.412z
		 M30.984-425.653c0-0.08,0-0.08,0.08-0.24C30.984-425.894,30.824-425.894,30.984-425.653z M31.064-425.974
		c0.24,0,0.32-0.08,0.32-0.16C31.224-426.134,31.224-426.054,31.064-425.974z M31.064-412.933c0.32-0.08,0.32-0.4,0.32-0.561
		C31.064-413.413,31.064-413.173,31.064-412.933z M31.145-427.733c0.08,0,0.08-0.08,0.08-0.16
		C31.304-427.733,31.224-427.733,31.145-427.733z M31.304-396.053c0.08-0.08,0.24-0.08,0.4-0.08c-0.08,0.08-0.16,0.24-0.32,0.24
		c0,0.08-0.08,0-0.16-0.16H31.304z M31.384-426.134c0.24-0.159,0.24-0.159,0.32-0.319C31.544-426.453,31.384-426.373,31.384-426.134
		z M31.384-413.493c0.16-0.08,0.24,0,0.16-0.24C31.544-413.733,31.464-413.653,31.384-413.493z M31.625-382.933
		c0-0.16,0-0.16-0.08-0.16v0.16H31.625z M31.704-428.453c0.08,0,0.24-0.08,0.32-0.08c-0.08-0.32,0-0.48,0.24-0.721
		c0.16-0.239,0.4-0.239,0.56-0.239c-0.16,0.479-0.4,0.72-0.8,0.96c-0.08,0.08-0.08,0.08-0.08,0.24
		C31.784-428.293,31.784-428.453,31.704-428.453z M31.704-426.453c0.08-0.16,0.24-0.16,0.32-0.32
		C31.784-426.773,31.704-426.693,31.704-426.453z M32.665-397.093c0-0.08,0-0.16-0.16-0.16h-0.48c-0.08,0-0.32,0-0.32,0.16
		c0.24,0.16,0.56,0,0.64,0.32h0.16C32.824-396.772,32.824-396.853,32.665-397.093z M32.024-414.854l0.08,0.08l0.16-0.08v-0.399
		C32.024-415.253,32.024-415.093,32.024-414.854z M32.264-382.772h-0.16v0.08L32.264-382.772z M32.344-427.094
		c0.08,0,0.16,0,0.08-0.239C32.424-427.174,32.344-427.174,32.344-427.094z M32.344-415.333c0.08,0,0.08-0.16,0.16-0.24
		c0,0-0.08-0.08-0.08-0.24l-0.08,0.16V-415.333z M32.824-397.572c-0.08,0-0.16,0.079-0.16,0.239
		C32.744-397.333,32.824-397.493,32.824-397.572z M32.824-429.493c0-0.08,0-0.24,0.16-0.4c0.08-0.08,0.16-0.32,0.4-0.399
		c0.16-0.16,0.32-0.721,0.8-0.48c0,0.4-0.32,0.48-0.48,0.72C33.464-429.894,33.224-429.493,32.824-429.493z M32.984-427.813h0.08
		v-0.08L32.984-427.813z M34.264-397.572c-0.16,0-0.4,0-0.48-0.32h-0.4c-0.24,0-0.4,0.08-0.4,0.32c0.16,0,0.4-0.08,0.48,0.239h0.48
		C34.185-397.333,34.264-397.333,34.264-397.572z M33.064-427.174c0,0.08,0,0,0.08,0c-0.08,0-0.08-0.159-0.08-0.159
		C32.984-427.333,32.984-427.174,33.064-427.174z M33.464-397.253c-0.08,0-0.32,0-0.08,0.16
		C33.384-397.173,33.384-397.253,33.464-397.253z M33.705-428.293c0-0.16,0-0.16,0.08-0.24
		C33.705-428.533,33.464-428.533,33.705-428.293z M33.784-428.533c0.08-0.08,0.16-0.08,0.32-0.32
		C33.864-428.854,33.784-428.773,33.784-428.533z M34.424-398.213c-0.32,0-0.56-0.08-0.64,0.32h0.64V-398.213z M34.104-428.854h0.32
		c0,0.08,0.08,0.24,0.08,0.24s0.08-0.16,0.08-0.24h-0.16v-0.32C34.185-429.014,34.104-429.014,34.104-428.854z M34.424-429.174h0.16
		v-0.159L34.424-429.174z M35.145-397.973c0-0.08-0.16-0.08-0.24-0.24v-0.32c-0.24,0-0.48,0-0.48,0.32h0.48v0.32
		C34.984-397.973,35.145-397.973,35.145-397.973z M34.904-397.893h-0.48v0.32C34.584-397.572,34.904-397.572,34.904-397.893z
		 M34.665-431.174c-0.08,0-0.08-0.159-0.16-0.159c0-0.08,0.08-0.08,0.08-0.08c0.08-0.08,0.24,0,0.32,0
		C34.824-431.333,34.824-431.174,34.665-431.174z M34.665-429.094v0.24c0-0.08,0.16-0.08,0.24-0.08
		C34.824-429.014,34.665-429.014,34.665-429.094z M34.984-429.733c0.16,0,0.24-0.16,0.24-0.24
		C35.145-429.974,34.984-429.894,34.984-429.733z M35.145-398.692c-0.16,0.08-0.16,0.08-0.16,0.159
		C35.145-398.533,35.225-398.533,35.145-398.692z M36.984-433.254c-0.32,0.641-0.88,1.04-1.36,1.44h-0.24
		c-0.08-0.08-0.08-0.24,0-0.32c0.32-0.64,0.88-0.96,1.44-1.12H36.984z M35.784-430.533l-0.16,0.16
		C35.705-430.373,35.705-430.373,35.784-430.533z M36.265-398.612l0.08-0.08c-0.08,0-0.08,0-0.24-0.08
		c0.16-0.24,0.24-0.48,0.24-0.561c-0.24,0-0.4,0-0.64,0.24c0,0-0.08,0.08-0.08,0.16c0.08,0,0.08,0.16,0.24,0.16h0.24
		C36.104-398.692,36.265-398.612,36.265-398.612z M35.705-398.293v-0.08c-0.08,0-0.08,0-0.08,0.08H35.705z M35.864-430.693
		c0.08,0,0.24,0.08,0.08-0.08C35.944-430.773,35.944-430.693,35.864-430.693z M36.584-380.933v-0.08c-0.16,0-0.16,0-0.24,0.08
		c0.08,0,0.08,0,0.24,0.16V-380.933z M36.984-399.652c-0.24,0-0.4,0-0.56,0.239h0.56V-399.652z M36.584-431.333h0.08l-0.08-0.08
		V-431.333z M36.984-399.013c0,0-0.08,0.08-0.16,0.08C36.984-398.933,36.984-399.013,36.984-399.013z M37.304-433.573
		c0,0.239-0.16,0.319-0.24,0.319C37.064-433.493,37.145-433.573,37.304-433.573z M37.064-431.094l0.08,0.08v-0.08H37.064z
		 M37.304-399.973c-0.16,0-0.24,0.16-0.24,0.24C37.145-399.732,37.304-399.813,37.304-399.973z M37.064-380.612
		c0.08,0,0.08,0,0.24,0.08c0.08,0.16,0.08,0.32,0.24,0.16c-0.08,0-0.16-0.16-0.24-0.16
		C37.304-380.612,37.304-380.772,37.064-380.612z M37.544-433.894c0,0.24-0.08,0.32-0.24,0.32
		C37.384-433.813,37.464-433.813,37.544-433.894z M38.104-399.813c-0.08-0.16-0.08-0.16-0.24-0.16v-0.24c-0.16,0-0.48,0-0.56,0.24
		h0.56v0.24C38.024-399.732,38.024-399.813,38.104-399.813z M37.864-434.214c0,0.24-0.08,0.32-0.32,0.32
		C37.705-433.974,37.705-434.054,37.864-434.214z M38.185-434.374c0,0.08-0.08,0.16-0.32,0.16
		C37.864-434.294,38.024-434.374,38.185-434.374z M38.185-400.533c-0.16,0.08-0.32,0.08-0.32,0.32
		C38.104-400.213,38.185-400.373,38.185-400.533z M38.104-432.453c0-0.08,0-0.08,0.08-0.16
		C38.104-432.613,37.864-432.613,38.104-432.453z M57.625-373.732c-0.08-0.08-0.08-0.16-0.08-0.16c-0.72,0-1.36-0.319-2.08-0.399
		c-1.44-0.32-2.88-0.641-4.24-1.2l-2.16-0.56c-0.56-0.24-1.2-0.561-1.84-0.641c-0.72-0.08-1.44-0.479-2-0.72
		c-0.72-0.32-1.44-0.48-2.16-0.8c-0.64-0.24-1.2-0.561-1.76-0.721c-0.32-0.159-0.64-0.239-0.96-0.319
		c-0.72-0.4-1.44-0.641-2.16-0.96c-0.08,0-0.16,0.159-0.16,0.159v0.08c0.8,0.641,1.68,0.801,2.4,1.36l0.88,0.16
		c1.52,0.64,2.96,1.12,4.4,1.76c1.52,0.48,2.96,1.04,4.4,1.44c1.44,0.399,2.88,0.8,4.32,1.12
		C55.465-373.893,56.505-373.572,57.625-373.732z M38.984-435.014c-0.08,0.4-0.4,0.64-0.8,0.48
		C38.265-434.934,38.584-435.014,38.984-435.014z M38.185-432.613c0.08-0.16,0.24-0.24,0.32-0.32
		C38.265-432.934,38.185-432.854,38.185-432.613z M38.745-400.853c-0.24,0-0.48,0-0.56,0.319
		C38.424-400.533,38.745-400.533,38.745-400.853z M38.265-381.252h0.16l-0.16-0.08V-381.252z M38.745-400.133
		c0-0.08-0.16-0.08-0.24,0l0.08,0.08C38.584-400.053,38.745-400.053,38.745-400.133z M38.825-433.254c0.08-0.08,0.16,0,0.08-0.239
		C38.904-433.493,38.825-433.334,38.825-433.254z M38.984-400.933c-0.08,0-0.08-0.08-0.08-0.08c0,0.08-0.08,0.08-0.08,0.16
		C38.904-400.853,38.904-400.933,38.984-400.933z M39.625-435.334c-0.08,0.32-0.32,0.32-0.48,0.32
		C39.145-435.414,39.464-435.334,39.625-435.334z M39.305-400.533c-0.08,0.08-0.08,0.08-0.16,0.08c0,0.08,0.08,0.08,0.08,0.08
		S39.305-400.453,39.305-400.533z M39.464-401.413c0,0.16,0.08,0.16,0.16,0.24v-0.24H39.464z M39.625-400.853
		c-0.16,0-0.16,0.08-0.16,0.319C39.544-400.533,39.625-400.692,39.625-400.853z M40.265-435.974c-0.08,0.32-0.32,0.56-0.64,0.64
		C39.705-435.813,39.705-435.813,40.265-435.974z M39.625-401.493c0.24,0,0.32-0.08,0.32-0.159
		C39.705-401.652,39.625-401.573,39.625-401.493z M39.705-433.974h0.16l-0.16-0.08V-433.974z M41.064-436.453
		c-0.08,0.319-0.4,0.64-0.8,0.479C40.345-436.374,40.665-436.533,41.064-436.453z M40.265-402.133c0.08,0,0.32,0,0.08-0.08
		C40.345-402.213,40.345-402.133,40.265-402.133z M40.345-434.613l0.08,0.08v-0.08H40.345z M40.345-379.973l0.08-0.08h-0.08
		V-379.973z M40.904-401.652c-0.24,0-0.32,0.079-0.32,0.159C40.745-401.493,40.904-401.573,40.904-401.652z M41.385-401.813v-0.16
		c0-0.16,0-0.32-0.24-0.24c-0.08,0.24-0.16,0.32-0.24,0.4H41.385z M41.064-436.533h0.08v0.08h-0.08V-436.533z M41.385-436.773
		c0,0.08-0.08,0.24-0.24,0.24C41.145-436.693,41.305-436.773,41.385-436.773z M41.145-435.094h0.24l-0.08-0.16L41.145-435.094z
		 M41.305-402.692c0,0,0.08-0.16,0.08-0.24C41.305-402.853,41.145-402.933,41.305-402.692z M41.385-436.854v0.08V-436.854z
		 M41.625-403.093c-0.16,0.08-0.16,0.08-0.16,0.16C41.625-402.933,41.705-402.933,41.625-403.093z M41.865-401.973
		c-0.08,0.08-0.08,0.16-0.08,0.16C41.865-401.813,42.024-401.813,41.865-401.973z M42.024-402.613c-0.16,0-0.32,0-0.16,0.24
		C41.865-402.373,41.865-402.533,42.024-402.613z M42.345-402.933c-0.24,0-0.24,0.08-0.32,0.319
		C42.185-402.613,42.345-402.692,42.345-402.933z M42.104-403.333c0,0,0.08,0.08,0.24,0.08
		C42.345-403.333,42.345-403.573,42.104-403.333z M42.104-379.172h0.08v-0.08L42.104-379.172z M42.504-403.013
		c-0.08,0-0.08-0.08-0.16-0.08v0.16C42.424-402.933,42.424-403.013,42.504-403.013z M42.745-436.054c0.08,0,0.08-0.08,0.08-0.08
		C42.745-436.134,42.584-436.134,42.745-436.054z M42.905-436.214h0.24c0,0,0-0.16-0.08-0.239
		C43.064-436.374,42.905-436.214,42.905-436.214z M43.145-403.413l-0.08,0.08C43.145-403.333,43.145-403.413,43.145-403.413z
		 M44.024-404.373l-0.56,0.32c-0.32,0.08-0.32,0.32-0.24,0.479h0.24c0.08-0.239,0.4-0.239,0.56-0.239V-404.373z M43.225-436.134
		c0,0.08,0,0.16,0.24,0.08C43.305-436.134,43.305-436.134,43.225-436.134z M43.305-378.853h0.16l-0.16-0.08V-378.853z
		 M43.464-437.653c0.8-0.16,1.44-0.561,1.92-0.96c0.08-0.08,0.08-0.08,0.08-0.24c-0.72,0.16-1.44,0.479-1.92,1.04
		C43.464-437.813,43.544-437.653,43.464-437.653z M43.865-436.934l0.08,0.08c0-0.08,0-0.08,0.08-0.24
		C43.945-437.094,43.945-436.934,43.865-436.934z M43.865-378.612c0,0.08,0.08,0.08,0.08,0.08s0.08-0.08,0.08-0.24
		C43.945-378.612,43.945-378.612,43.865-378.612z M44.024-378.772h0.64v-0.319l-0.16-0.16c0,0.08-0.16,0.08-0.24,0.16
		C44.185-378.933,44.185-378.853,44.024-378.772z M44.185-437.174c0,0,0.16,0.08,0.08-0.08
		C44.185-437.254,44.185-437.174,44.185-437.174z M44.584-378.212c0-0.16,0-0.16,0.08-0.24
		C44.584-378.452,44.345-378.452,44.584-378.212z M44.665-405.013c0.24,0,0.4,0,0.64-0.16c0.64-0.56,1.12-1.12,1.6-1.68
		c0.24-0.16,0.48-0.16,0.64-0.16c0.08-0.24,0.24-0.32,0.32-0.32v-0.64c-0.24,0-0.4,0.08-0.64,0.319c-0.56,0.641-1.2,1.2-1.84,1.841
		C45.225-405.573,44.745-405.413,44.665-405.013z M44.665-378.452c0.08-0.08,0.08-0.08,0.24-0.08c-0.16-0.08-0.16-0.08-0.24-0.24
		V-378.452z M44.745-437.573v0.08h0.16C44.905-437.653,44.745-437.653,44.745-437.573z M45.305-378.853h0.16
		c0-0.08-0.08-0.08-0.08-0.08L45.305-378.853z M45.305-378.053l0.08,0.16l0.08-0.16l-0.08-0.079L45.305-378.053z M45.625-438.934
		c0.16,0,0.4,0.08,0.48-0.16C45.945-439.094,45.625-439.254,45.625-438.934z M45.785-438.134l-0.08-0.08v0.08H45.785z
		 M46.104-405.253l-0.32,0.24C46.024-405.013,46.104-405.093,46.104-405.253z M46.104-439.094c0.32,0,0.56,0,0.64-0.32
		C46.505-439.414,46.185-439.573,46.104-439.094z M46.425-405.573c-0.08,0.08-0.24,0.16-0.32,0.32
		C46.345-405.253,46.425-405.413,46.425-405.573z M46.345-438.374l-0.16-0.159v0.159H46.345z M46.745-405.893
		c-0.08,0.08-0.24,0.16-0.32,0.319c0.24,0,0.32-0.159,0.32-0.239c0.16-0.08,0.32-0.16,0.32-0.32L46.745-405.893z M46.745-439.414
		h0.48c0.24,0,0.32-0.159,0.32-0.319h-0.4C46.905-439.733,46.825-439.653,46.745-439.414z M46.745-377.412c0.08,0,0.08,0,0.08,0.08
		l0.08-0.08c0,0,0-0.08-0.08-0.08C46.825-377.492,46.825-377.412,46.745-377.412z M47.625-406.693c-0.24,0.08-0.48,0.24-0.56,0.561
		C47.544-406.213,47.544-406.213,47.625-406.693z M47.625-439.733c0.24,0,0.48,0,0.56-0.32
		C47.945-440.054,47.625-440.054,47.625-439.733z M47.865-407.013h-0.24v0.319C47.785-406.693,47.865-406.853,47.865-407.013z
		 M47.625-377.092c0,0,0.16,0,0.16,0.079c0-0.079,0.08-0.079,0.08-0.079l-0.08-0.08C47.785-377.172,47.625-377.172,47.625-377.092z
		 M51.785-411.173h-0.32c-0.08-0.4,0.24-0.72,0.48-0.88c0.24-0.24,0.48-0.561,0.32-0.88c-0.08,0.159-0.4,0.239-0.48,0.479
		c-0.8,0.8-1.52,1.68-2.24,2.561c-0.56,0.399-0.96,0.88-1.36,1.279c-0.24,0.24-0.32,0.48-0.32,0.641l0.64-0.32
		c0.16-0.16,0.4-0.32,0.56-0.16l-0.24,0.4c-0.16,0.08-0.24,0.319-0.32,0.399c0.72-0.08,0.8-0.239,0.88-0.8h-0.32v-0.399
		c0.56-0.561,0.88-1.04,1.44-1.44c0.16-0.24,0.32-0.56,0.64-0.56v0.239c0,0.08,0.08,0.16,0.08,0.32l0.24-0.32v-0.239h-0.32
		c0-0.16,0.08-0.32,0.32-0.32v0.32C51.545-410.933,51.705-410.933,51.785-411.173z M48.104-439.334h-0.16l0.16,0.08V-439.334z
		 M48.185-407.333h-0.24v0.32C48.104-407.013,48.185-407.173,48.185-407.333z M48.505-407.653c-0.16,0.08-0.24,0.24-0.32,0.32
		C48.345-407.333,48.505-407.413,48.505-407.653z M48.265-440.054h0.72c0.24,0,0.32-0.08,0.4-0.32h-0.8
		C48.345-440.374,48.265-440.294,48.265-440.054z M48.584-376.772h0.08c0.16,0.08,0.24,0.08,0.4,0.08
		c-0.08-0.08-0.16-0.24-0.24-0.24C48.825-377.013,48.665-376.933,48.584-376.772z M49.065-376.692c0,0.08,0,0.32,0.24,0.08
		C49.225-376.612,49.225-376.612,49.065-376.692z M49.385-440.374h0.64c0.08,0,0.08-0.08,0.08-0.08s0-0.079-0.08-0.079
		C49.785-440.533,49.545-440.693,49.385-440.374z M49.625-408.773c-0.08,0-0.24,0.08-0.24,0.32
		C49.545-408.613,49.625-408.693,49.625-408.773z M50.265-409.413c-0.32,0.08-0.56,0.32-0.56,0.64
		C50.105-408.773,50.265-408.853,50.265-409.413z M50.425-409.573c-0.08,0.08-0.08,0.08-0.08,0.16
		C50.425-409.413,50.505-409.413,50.425-409.573z M50.345-376.292c0,0.08,0,0.08,0.08,0.08v-0.08H50.345z M50.745-410.133
		c0,0-0.08-0.08-0.24-0.08C50.665-410.133,50.505-410.053,50.745-410.133z M50.985-440.773c0,0,0.08,0.08,0.16,0.08
		c0,0,0.08,0,0.16-0.08c-0.08,0-0.16-0.08-0.16-0.08C51.065-440.854,51.065-440.773,50.985-440.773z M51.465-439.974l0.08,0.16
		l0.16-0.16H51.465z M51.945-411.493c-0.08,0-0.16,0.16-0.16,0.32C51.865-411.173,51.945-411.253,51.945-411.493z M52.265-411.733
		c-0.08,0-0.16,0.08-0.16,0.24C52.185-411.493,52.265-411.573,52.265-411.733z M52.905-413.813c-0.4,0.08-0.64,0.4-0.64,0.881
		C52.665-413.093,52.985-413.333,52.905-413.813z M52.505-411.973c-0.08,0.08-0.08,0.08-0.08,0.239
		C52.505-411.733,52.585-411.733,52.505-411.973z M52.505-375.572c0,0,0-0.08,0.08-0.08c-0.08,0-0.08-0.08-0.08-0.08
		C52.425-375.652,52.425-375.652,52.505-375.572z M52.905-412.613c-0.08,0-0.32,0-0.08,0.24
		C52.825-412.453,52.905-412.613,52.905-412.613z M52.905-413.813c0.48-0.239,0.8-0.64,0.96-1.12
		C53.305-414.773,52.985-414.453,52.905-413.813z M53.225-412.933c-0.24,0-0.32,0.159-0.32,0.239
		C53.145-412.693,53.225-412.773,53.225-412.933z M54.105-414.133c-0.48,0.319-0.88,0.64-0.88,1.12
		C53.705-413.173,54.105-413.493,54.105-414.133z M53.305-375.332c0,0,0.08,0.08,0.24,0.08c0,0,0.08-0.08,0.16-0.08
		c-0.08,0-0.08-0.16-0.16-0.16C53.385-375.492,53.305-375.332,53.305-375.332z M54.665-416.213c-0.56,0.24-0.8,0.64-0.8,1.279
		C54.265-415.253,54.665-415.573,54.665-416.213z M54.345-414.613c-0.32,0-0.24,0.24-0.24,0.48
		C54.425-414.213,54.345-414.453,54.345-414.613z M54.665-414.934c-0.08,0-0.24,0.08-0.24,0.16
		C54.585-414.773,54.665-414.854,54.665-414.934z M54.585-375.012c0,0,0,0.079,0.08,0.079c0.08,0,0.08-0.079,0.16-0.079v-0.16
		C54.745-375.172,54.665-375.012,54.585-375.012z M54.985-416.693c-0.32,0-0.32,0.32-0.32,0.48
		C54.985-416.293,54.985-416.533,54.985-416.693z M54.825-415.253c-0.08,0.08-0.08,0.16-0.08,0.16
		C54.825-415.093,54.985-415.093,54.825-415.253z M55.305-417.333c-0.32,0.08-0.32,0.32-0.32,0.56
		C55.385-416.773,55.305-417.093,55.305-417.333z M55.305-415.894c-0.16,0.08-0.32,0-0.16,0.24
		C55.145-415.653,55.145-415.813,55.305-415.894z M55.545-417.653c-0.16,0-0.16,0.16-0.24,0.32
		C55.465-417.413,55.545-417.493,55.545-417.653z M55.385-416.053c0,0,0,0.08-0.08,0.159
		C55.385-415.894,55.545-415.894,55.385-416.053z M55.385-374.853l0.16,0.24c0-0.16,0.16-0.16,0.24-0.16l-0.08-0.08H55.385z
		 M55.705-418.133c0,0,0,0.08-0.16,0.08v0.319c0.16,0,0.24-0.08,0.24-0.24C55.865-417.974,55.785-418.053,55.705-418.133z
		 M55.785-416.613c0-0.08-0.08-0.08-0.08,0v0.08L55.785-416.613z M56.105-417.333c-0.08,0-0.24,0-0.08,0.24
		C56.105-417.253,56.105-417.253,56.105-417.333z M56.265-417.493l-0.08,0.08C56.265-417.413,56.425-417.413,56.265-417.493z
		 M57.225-418.773c0-0.08-0.08-0.16-0.24-0.319c-0.16,0.239-0.24,0.399-0.08,0.56h0.24
		C57.145-418.693,57.225-418.693,57.225-418.773z M56.905-374.532c0,0.08,0,0.08,0.08,0.24c0.16-0.16,0.16-0.16,0.24-0.16
		c0-0.08,0-0.08-0.08-0.08H56.905z M57.305-419.493c0-0.08-0.08-0.08-0.08-0.08c-0.08,0-0.08,0-0.08,0.08s0,0.24-0.16,0.32
		C57.225-419.173,57.305-419.253,57.305-419.493z M57.625-420.213c0-0.08-0.08-0.16-0.08-0.32c-0.08,0.16-0.08,0.16-0.08,0.24v0.16
		C57.545-420.213,57.625-420.213,57.625-420.213z M59.785-373.732c-0.4,0-0.32-0.399-0.64-0.479c-0.24-0.08-0.56-0.08-0.88,0
		c-0.08,0-0.24,0.08-0.32,0.16c-0.08,0.159-0.24,0.239-0.32,0.319c0.08,0.16,0.24,0.24,0.32,0.24h1.84
		C59.865-373.492,59.865-373.572,59.785-373.732z M58.265-422.054c-0.08,0-0.24,0.08-0.24,0.08s0,0.16,0.16,0.16
		C58.185-421.974,58.185-421.974,58.265-422.054z M58.185-421.333l-0.16-0.08v0.16C58.185-421.253,58.185-421.333,58.185-421.333z
		 M59.625-425.014c-0.64,0.801-0.88,1.841-1.36,2.641c-0.08,0.08,0,0.24,0,0.319c0.08,0.08,0.16,0.24,0.16,0.32
		c0.16,0.16,0.16,0.4,0.16,0.641c0,0.079,0,0.079,0.08,0.159l0.08-0.08c0.16,0,0.24-0.079,0.24-0.239
		c0.32-0.561,0.72-1.12,0.8-1.761c0.24-0.72,0.56-1.279,0.56-1.92c0-0.319,0-1.52-0.16-1.68l-0.08-0.08l-0.08,0.08
		c0,0.32,0,0.64-0.32,0.88C59.385-425.573,59.705-425.253,59.625-425.014z M58.745-420.293c-0.08-0.08-0.08-0.24-0.16-0.24
		c-0.16-0.08-0.24,0-0.32,0.16c0.08,0,0.08,0.08,0.08,0.08H58.745z M58.745-374.052c0.16,0,0.24,0.159,0.32,0.159l-0.32,0.16h-0.16
		l-0.32-0.16c0.08,0,0.16-0.159,0.32-0.159H58.745z M60.505-427.094c0-0.8,0.24-1.439-0.16-2.08c-0.16,0-0.24-0.08-0.24-0.08
		c-0.08,0-0.08,0-0.08,0.08C60.025-428.533,59.865-427.813,60.505-427.094z M60.825-430.214c-0.08,0.561,0.08,0.96,0.08,1.44
		l0.16,0.16c0-0.16,0.08-0.16,0.08-0.24c0.08-0.8-0.08-1.6,0.16-2.479v-0.16c-0.16-0.4-0.24-0.88-0.48-1.28c0,0-0.08,0-0.24-0.08
		v1.92C60.585-430.693,60.825-430.373,60.825-430.214z M61.465-427.493c-0.16-0.08-0.16-0.08-0.24,0c0,0,0.08,0,0.08,0.08
		L61.465-427.493z M61.465-428.134c-0.16,0-0.16-0.08-0.16-0.08c-0.08,0.08-0.08,0.08,0,0.16L61.465-428.134z"/>
	<path d="M91.624-395.973v-0.48c-0.24,0-0.72,0-0.96,0.48c-0.24,0-0.4,0-0.64,0.16c-0.64,0.24-1.04,0.32-1.28,0.96
		c-0.32,0.16-0.72,0.16-0.88,0.399c-0.56,0-0.88,0.24-1.2,0.881h0.8v0.319c-1.04,0.721-2.4,1.36-3.12,2.24
		c-1.28,0.4-2.24,1.36-3.28,2.08c-1.2,0.561-2.24,1.28-3.28,1.92c-1.92,1.04-3.84,2.32-6.08,3.2c-1.04,0.32-2,0.72-3.041,1.12
		c-2,0.72-4.24,0.72-6.32,0.16c-0.16,0-0.56-0.16-0.64-0.24c-0.56-0.96-1.28-1.6-1.68-2.8c-0.56-1.28-0.88-2.721-0.72-4.16
		c0.24-1.28,0.56-2.48,0.88-3.681c1.2-3.04,2.8-5.68,4.88-8.16c0.64-0.8,1.6-1.6,2.24-2.399c0.72-0.721,1.68-0.88,2.56-0.48
		c0.72,0.48,1.36,1.04,2,1.601c0.24,0.399,0,1.04-0.32,1.04h-0.24c-1.12-0.24-2,0.479-2.4,1.359c-0.8,1.36-1.6,2.32-2.24,3.44
		c-1.28,1.76-2.56,3.76-3.2,5.68c-0.16,0.721-0.48,1.36-0.96,2.08c-0.32,0.96-0.4,1.841-0.16,2.961c0.72,0.56,1.92,0.56,2.96,0.319
		c0.96-0.319,2-0.64,3.04-1.04c0.96-0.24,1.92-0.64,2.96-1.12c0.8-0.56,1.92-0.8,2.88-1.52c2-0.88,3.6-2,5.68-3.2
		c1.52-0.8,2.88-1.84,4.56-2.64c0.4-0.08,1.04-0.4,1.36-0.721c0.88-0.96,2.24-1.52,3.2-2.08c0.96-0.479,1.68-0.96,2.56-1.52
		c0.4-0.24,2.32-1.2,2.8-1.12c0.4,0.16-0.4,0.88-0.08,1.68C93.144-397.493,92.024-396.133,91.624-395.973z M72.664-415.013
		c0.8-0.561,1.6-0.881,2.64-0.801c0.16,0,0.32,0.24,0.48,0.24c0.4,0.561,1.04,0.96,1.12,1.68c0,0.4,0.24,0.881-0.08,1.36
		c-0.56,0.32-1.04,0.8-1.92,0.88h-0.72c-0.24-0.08-0.72-0.08-1.2-0.239C71.704-412.293,71.383-414.133,72.664-415.013z
		 M91.544-397.572c-1.2,0.319-2.32,0.8-3.44,1.439c-1.68,1.04-3.36,1.92-5.04,2.96c-0.32,0.16-0.8,0.48-0.8,0.641
		c0.8,0,1.44-0.32,2.16-0.721c2.16-1.2,4.32-2.64,6.56-3.76C91.144-397.013,91.384-397.413,91.544-397.572z"/>
	<path d="M172.984-399.493c-0.721,0.4-1.44,0.96-1.92,1.36c-1.761,1.2-3.281,2.32-5.121,3.12c-0.32,0.08-0.479,0.24-0.64,0.4
		c-2.399,1.92-5.28,2.88-7.681,4.16c-2,0.88-3.84,1.76-5.6,2.72l-2.801,1.28c-0.719,0.16-1.359,0.16-1.92,0
		c-0.399-0.16-0.719-0.4-0.879-0.561c-0.961-0.88-1.281-2-1.521-3.2c-0.24-1.12-0.32-2.479,0-3.76c0.56-1.6,1.28-3.28,1.92-5.12
		v-0.64c-0.239,0.16-0.319,0.16-0.399,0.16c-1.761,0.64-3.361,1.439-4.881,2.319c-0.96,0.4-1.92,0.96-2.72,1.681
		c-1.12,0.56-2.16,1.359-3.12,1.92l-3.36,2l-4.96,3.52c-0.24,0.24-0.561,0.4-0.88,0.48c-0.88,0.56-1.601,0.56-2.16-0.32
		c-0.399-0.8-0.88-1.68-1.12-2.64c-0.32-0.561,0-1.28,0.24-1.92c0.4-0.801,0.48-1.601,0.88-2.48c1.44-3.521,2.56-7.36,3.84-10.96
		l0.32-1.44c-0.64-0.16-0.88,0.32-1.12,0.4c-0.48,0.08-0.8,0.399-1.12,0.56c-0.159,0.32-0.479,0.48-0.72,0.561
		c-0.48,0.239-0.721,0.479-1.04,0.72c-0.479,0.32-0.64,0.56-1.04,0.72c-1.92,1.681-3.92,3.28-6,4.881
		c-0.4,0.399-0.801,0.64-1.36,1.119c-0.72,1.2-1.76,2-2.8,2.881c-1.2,0.96-2.4,2.239-3.68,3.6c-0.8,0.8-1.52,1.76-2.48,2.641
		c0,0,0,0.239-0.08,0.239c-1.84,1.36-3.28,3.521-5.12,5.12c-0.96,0.641-1.76,1.44-2.48,2.24c-0.24,0.24-0.4,0.32-0.88,0.32
		c-0.56,0.319-0.96-0.08-1.28-0.32c-1.68-1.6-2.16-3.36-1.6-5.6c0.4-0.961,0.64-1.761,0.96-2.641c0.96-2.72,2.4-5.2,3.92-7.6
		c0.72-1.36,1.68-2.24,2-3.761c0.32-0.56,1.04-0.72,1.44-0.56c0.88,0.479,1.6,1.04,2,1.76c0.56,0.88,0.56,2-0.16,2.64
		c-0.8,1.04-1.28,2.48-2.24,3.36c-0.4,0.561-0.72,1.28-1.12,1.92c-0.96,1.601-1.76,3.12-2.64,4.561c-0.16,0.24-0.16,0.56-0.16,0.8
		c0.88-0.56,1.28-1.04,1.84-1.52l8.24-8.4c1.36-1.28,2.88-2.4,4.32-3.761c2.24-2,4.64-3.92,6.96-5.84
		c1.52-1.04,2.881-2.08,4.32-3.04c0.8-0.56,1.84-1.28,2.88-1.6c0.8-0.48,1.681-0.561,2.4,0.239c0.079,0.4,0.479,0.4,0.56,0.48
		c1.12,0.56,1.6,1.44,1.28,2.56c-0.319,1.761-0.399,3.601-1.28,5.28c-0.4,0.4-0.48,1.04-0.56,1.601c-0.16,1.12-1.04,1.92-1.521,3.04
		c-0.24,1.04-0.32,2.24-0.72,3.04c-0.56,0.8-0.64,1.28-0.96,1.92v0.16c0.16,0.16,0.16,0.16,0.32,0.16c0.08,0,0.08-0.16,0.399-0.16
		c3.2-2.08,6.561-4.08,9.761-6.24c2.64-1.68,5.439-2.96,8.32-3.92c0.56-0.24,1.199-0.641,1.6-0.88c0.641-0.4,1.359-0.32,2-0.16
		c0.4,0,0.561,0.239,0.561,0.399c0.08,0.4,0,0.641,0.479,0.641c0.64,0,0.96,0.399,0.96,0.8c0,0.56,0,0.88-0.08,1.28
		c-0.4,0.96-0.72,1.84-0.96,2.88c-0.399,1.28-1.12,2.4-1.84,3.68c-0.56,1.28-1.36,2.48-1.521,3.841c0,0.399,0.16,0.72,0.48,0.479
		c2.24-0.8,4.24-1.76,6.4-2.8c1.68-0.8,3.279-1.44,4.64-2.24c3.28-1.36,6.48-3.12,9.521-5.12c1.359-0.72,2.561-1.44,3.92-2
		c0.561-0.32,0.96,0,1.12,0.56C174.023-400.612,173.863-400.053,172.984-399.493z M118.263-402.053c-0.64,0-0.96,0.56-1.2,0.88
		C117.463-401.173,118.103-401.333,118.263-402.053z M120.263-403.653c-0.319,0-0.56,0-0.72,0.561
		C119.783-403.093,120.022-403.093,120.263-403.653z M121.783-404.772c-0.4,0-0.801,0.159-1.201,0.72
		C121.223-404.053,121.543-404.453,121.783-404.772z M168.184-397.893c-0.4,0.08-0.96,0.32-1.199,0.96
		C167.544-397.173,167.943-397.253,168.184-397.893z M170.104-399.093c-0.4,0-0.8,0.16-0.88,0.8
		C169.544-398.293,170.023-398.533,170.104-399.093z"/>
	<path d="M220.742-397.333c-0.96,0.16-1.76,0.721-2.32,1.44c-1.6,0.56-4.399,1.68-5.039,2c-0.16,0.24-0.16,0.24-0.16,0.32
		c0.16,0,0.319,0.239,0.319,0.239c0.72-0.239,1.521-0.56,2.4-0.8v0.08h-0.08c-0.96,0.16-1.601,0.88-2.08,1.521h-0.24
		c-0.96-0.08-1.04,0.8-1.6,1.04l-2.32,0.8c-1.601,0.96-3.2,1.6-4.96,2c-1.28,0.24-2.561,0.399-3.92,0.72h-0.801
		c-1.119,0.8-2.16,0.24-3.119-0.08c-0.881-0.319-1.84-0.64-2.24-1.68c-0.08-0.32-0.24-0.561-0.32-0.96
		c-1.6-1.681-1.359-3.601-0.96-5.521c0.16-1.12,0.64-2.08,0.96-3.2v-0.159c-0.24-0.24-0.24-0.24-0.32-0.08l-5.68,4
		c-1.12,0.64-2.24,1.359-3.2,2c-1.2,0.88-2.319,1.92-3.601,2.56c-1.359,1.04-2.879,1.84-4.319,2.721
		c-0.24,0.079-0.56,0.319-0.8,0.319c-0.881,0-1.76,0.08-2.641,0c-2.16-0.399-2.96-1.6-3.279-4c-0.08-0.88,0.239-1.84,0.56-2.479
		c0.56-0.801,1.36-1.681,1.92-2.561c1.681-2,3.601-3.76,5.28-5.44c1.68-1.68,3.52-2.88,5.52-4.319c1.68-1.12,3.601-1.681,5.521-2.24
		c1.12-0.561,3.521,0.56,4.08,1.52c0.399,0.561,0.319,1.2-0.24,1.04c-2.079-0.64-3.68,0.4-4.96,0.801
		c-2,1.039-3.359,2.399-4.96,3.84c-0.72,0.96-1.761,1.76-2.8,2.8c-1.521,1.12-2.48,2.48-3.76,3.76c-0.641,0.32-0.32,1.12-0.801,1.44
		c-1.6,1.6-1.6,1.6-1.199,1.84c0.719,0,1.279-0.479,1.92-0.72c2.319-1.12,4.56-2.561,6.64-4.08c2.319-1.44,4.56-3.04,6.8-4.641
		c1.68-1.199,3.28-2.239,4.961-3.279c0.399-0.16,0.64-0.4,0.879-0.48c0.16-0.16,0.4-0.16,0.48-0.16c0.641,0.96,1.52,0.641,2.24,1.04
		c0.08,0.16,0.32,0.16,0.561,0.24c-0.48,0.64,0.56,0.64,0.56,1.2c-0.16,0.399,0.239,1.04-0.16,1.28
		c-0.399,0.8-0.319,1.76-0.56,2.479c-0.561,1.04-1.041,2.24-1.44,3.28c-0.319,0.64-0.64,1.28-0.8,2c0,0.72-0.881,0.96-0.48,1.6
		c0.721,0.24,1.28,0.24,2,0.24c2,0,4-0.479,6-1.28l4.32-1.92c4.4-1.68,8.641-3.52,13.041-4.88c0.959-0.24,2.16-0.4,3.199-0.8
		c0.24,0,0.4,0,0.641-0.16l0.16,0.24c-0.08,0.08-0.08,0.319-0.08,0.319c-0.08,0.08-0.24,0.16-0.32,0.32
		c-1.439,0-2.96,0.561-4.24,1.04v0.08c0.641,0.24,1.28,0.32,1.84,0.48c0,0-0.08,0.079-0.24,0.319
		C221.942-398.213,221.223-397.973,220.742-397.333z M185.621-397.333h-0.16v0.16L185.621-397.333z M186.021-397.893
		c-0.08,0-0.24,0.32-0.24,0.399C185.941-397.493,186.021-397.493,186.021-397.893z M187.142-398.612c-0.399,0-0.8,0.399-1.04,0.72
		C186.662-397.893,187.062-398.133,187.142-398.612z M188.422-399.413c-0.4,0-0.801,0.24-1.12,0.801
		C188.021-398.533,188.342-398.853,188.422-399.413z M189.781-400.213c-0.56,0-1.039,0.08-1.119,0.641
		C188.981-399.572,189.701-399.652,189.781-400.213z M190.982-401.093c-0.641,0-0.961,0.24-1.201,0.88
		C190.342-400.213,190.662-400.453,190.982-401.093z M192.262-401.893c-0.641,0.08-1.04,0.24-1.2,0.8
		C191.621-401.093,191.941-401.413,192.262-401.893z M193.462-402.692c-0.72-0.08-0.88,0.159-1.2,0.8
		C192.742-401.893,193.222-402.053,193.462-402.692z M194.582-403.493c-0.561,0-0.961,0.16-1.12,0.721
		C194.021-402.692,194.502-402.933,194.582-403.493z M194.902-403.813h-0.08v0.08L194.902-403.813z M208.502-392.373
		c-0.561,0-1.119-0.159-1.76,0c-1.6,0.32-3.12,0.721-4.881,1.12c-0.08,0-0.159,0.16-0.479,0.32v0.16c0,0,0,0.08,0.16,0.08
		c0,0,0,0.08,0.16,0.08c1.12-0.16,2.159-1.12,3.601-0.32h0.239C206.342-391.492,207.702-391.492,208.502-392.373z M209.223-394.612
		c0-0.24-0.16-0.24-0.24-0.24h-0.16c0.16,0.24,0.24,0.24,0.24,0.24H209.223z M209.702-392.532c-0.08,0-0.16,0-0.08,0.239
		C209.622-392.373,209.702-392.373,209.702-392.532z M210.742-392.772c-0.08,0-0.08-0.16-0.16-0.16c-0.32,0-0.561,0.16-0.561,0.4
		h0.641C210.662-392.532,210.742-392.612,210.742-392.772z M210.582-395.253h-0.24l0.24,0.16V-395.253z M211.782-395.813
		c-0.24,0.16-0.88-0.08-1.12,0.479h0.721C211.702-395.333,211.782-395.492,211.782-395.813z M213.942-396.532
		c-0.88-0.08-1.44,0-2,0.72c0.64,0.16,1.44-0.08,2-0.561V-396.532z M215.942-397.333c-0.8-0.16-1.36,0.16-2,0.721
		C214.822-396.532,215.463-396.612,215.942-397.333z M216.102-394.213c-0.079,0-0.159,0.08-0.159,0.08
		S216.022-394.213,216.102-394.213z M217.303-397.893h-0.961c-0.08,0-0.16,0.399-0.16,0.56
		C216.502-397.333,216.902-397.173,217.303-397.893z M220.822-398.853h0.08c-1.359-0.24-2.48,0.319-3.6,0.88v0.08
		C218.502-397.973,219.623-398.293,220.822-398.853z M219.143-397.493v-0.079h-0.16L219.143-397.493z M223.463-399.413
		c-0.16,0.16-0.32,0.4-0.32,0.561h-0.08c-0.32-0.24-0.561-0.24-0.32-0.561C223.143-399.572,223.223-399.413,223.463-399.413z
		 M223.543-399.413c0-0.159,0-0.159,0.16-0.159C223.623-399.493,223.543-399.493,223.543-399.413z"/>
</g>
</svg>
